<svg width="166" height="56" viewBox="0 0 166 56" fill="none" xmlns="http://www.w3.org/2000/svg">
<path d="M97.9043 32.498V38.8262C97.9043 42.043 95.9092 44.4775 91.9189 46.1299C89.6865 47.0615 87.2432 47.5273 84.5889 47.5273C81.9346 47.5273 79.4912 47.0615 77.2588 46.1299C73.2686 44.4775 71.2734 42.043 71.2734 38.8262V15.3594C71.2734 12.1426 73.2686 9.70801 77.2588 8.05566C79.4912 7.12402 81.9346 6.6582 84.5889 6.6582C87.2432 6.6582 89.6865 7.12402 91.9189 8.05566C95.9092 9.70801 97.9043 12.1426 97.9043 15.3594V19.3145L92.8945 21.6875H92.6309V15.3594C92.6309 14.1641 91.5674 13.1357 89.4404 12.2744C87.9639 11.6943 86.3467 11.4043 84.5889 11.4043C82.8311 11.4043 81.2139 11.6943 79.7373 12.2744C77.6104 13.1182 76.5469 14.1465 76.5469 15.3594V38.8262C76.5469 40.0215 77.6104 41.0498 79.7373 41.9111C81.2139 42.4912 82.8311 42.7812 84.5889 42.7812C86.3467 42.7812 87.9639 42.4912 89.4404 41.9111C91.5674 41.0674 92.6309 40.0391 92.6309 38.8262V34.8711L97.6406 32.498H97.9043ZM108.451 8.50391L113.461 6.13086H113.725V38.8262C113.725 40.0391 114.788 41.0674 116.915 41.9111C118.392 42.4912 120.009 42.7812 121.767 42.7812C123.524 42.7812 125.142 42.4912 126.618 41.9111C128.745 41.0674 129.809 40.0391 129.809 38.8262V8.50391L134.818 6.13086H135.082V38.8262C135.082 42.043 133.087 44.4775 129.097 46.1299C126.864 47.0615 124.421 47.5273 121.767 47.5273C119.112 47.5273 116.669 47.0615 114.437 46.1299C110.446 44.4775 108.451 42.043 108.451 38.8262V8.50391ZM149.136 48.0547V11.9844H137.851V11.7207L139.986 7.18555H165.694V7.44922L163.559 11.9844H154.409V45.6816L149.399 48.0547H149.136Z" fill="white"/>
<path fill-rule="evenodd" clip-rule="evenodd" d="M51.2792 22.2254L33.5391 4.48528C30.4149 1.36109 25.3496 1.36109 22.2254 4.48529L4.48528 22.2254C1.36109 25.3496 1.3611 30.4149 4.48529 33.5391L22.2254 51.2792C25.3496 54.4034 30.4149 54.4034 33.5391 51.2792L51.2792 33.5391C54.4034 30.4149 54.4034 25.3496 51.2792 22.2254ZM34.9533 3.07106C31.0481 -0.834179 24.7164 -0.834171 20.8112 3.07107L3.07107 20.8112C-0.834171 24.7164 -0.834164 31.0481 3.07108 34.9533L20.8112 52.6934C24.7164 56.5987 31.0481 56.5987 34.9533 52.6934L52.6934 34.9533C56.5987 31.0481 56.5987 24.7164 52.6934 20.8112L34.9533 3.07106Z" fill="white"/>
<path d="M33.5 17H23V27.5L26.5 28L26 42.5L32.5 27.5H30L33.5 17Z" fill="#FFE486" stroke="#FFE486"/>
</svg>
