<svg width="161" height="56" viewBox="0 0 161 56" fill="none" xmlns="http://www.w3.org/2000/svg">
<path d="M93.7621 33.498V39.8262C93.7621 43.043 91.767 45.4775 87.7768 47.1299C85.5444 48.0615 83.101 48.5273 80.4467 48.5273C77.7924 48.5273 75.3491 48.0615 73.1166 47.1299C69.1264 45.4775 67.1313 43.043 67.1313 39.8262V16.3594C67.1313 13.1426 69.1264 10.708 73.1166 9.05566C75.3491 8.12402 77.7924 7.6582 80.4467 7.6582C83.101 7.6582 85.5444 8.12402 87.7768 9.05566C91.767 10.708 93.7621 13.1426 93.7621 16.3594V20.3145L88.7524 22.6875H88.4887V16.3594C88.4887 15.1641 87.4252 14.1357 85.2983 13.2744C83.8217 12.6943 82.2045 12.4043 80.4467 12.4043C78.6889 12.4043 77.0717 12.6943 75.5952 13.2744C73.4682 14.1182 72.4047 15.1465 72.4047 16.3594V39.8262C72.4047 41.0215 73.4682 42.0498 75.5952 42.9111C77.0717 43.4912 78.6889 43.7812 80.4467 43.7812C82.2045 43.7812 83.8217 43.4912 85.2983 42.9111C87.4252 42.0674 88.4887 41.0391 88.4887 39.8262V35.8711L93.4985 33.498H93.7621Z" fill="white"/>
<path d="M101.131 9.50391L106.141 7.13086H106.405V39.8262C106.405 41.0391 107.468 42.0674 109.595 42.9111C111.072 43.4912 112.689 43.7812 114.447 43.7812C116.205 43.7812 117.822 43.4912 119.298 42.9111C121.425 42.0674 122.489 41.0391 122.489 39.8262V9.50391L127.498 7.13086H127.762V39.8262C127.762 43.043 125.767 45.4775 121.777 47.1299C119.544 48.0615 117.101 48.5273 114.447 48.5273C111.792 48.5273 109.349 48.0615 107.117 47.1299C103.126 45.4775 101.131 43.043 101.131 39.8262V9.50391Z" fill="white"/>
<path fill-rule="evenodd" clip-rule="evenodd" d="M51.1371 22.2254L33.397 4.48528C30.2728 1.36109 25.2074 1.36109 22.0833 4.48529L4.34314 22.2254C1.21895 25.3496 1.21895 30.4149 4.34315 33.5391L22.0833 51.2792C25.2074 54.4034 30.2728 54.4034 33.397 51.2792L51.1371 33.5391C54.2613 30.4149 54.2613 25.3496 51.1371 22.2254ZM34.8112 3.07106C30.9059 -0.834179 24.5743 -0.834171 20.669 3.07107L2.92893 20.8112C-0.976314 24.7164 -0.976307 31.0481 2.92894 34.9533L20.669 52.6934C24.5743 56.5987 30.9059 56.5987 34.8112 52.6934L52.5513 34.9533C56.4565 31.0481 56.4565 24.7164 52.5513 20.8112L34.8112 3.07106Z" fill="white"/>
<path d="M33.011 17H23.1078C22.9698 17 22.8578 17.1119 22.8578 17.25V27.2832C22.8578 27.4076 22.9493 27.5131 23.0725 27.5307L26.1356 27.9683C26.262 27.9863 26.3545 28.0967 26.3501 28.2244L25.9033 41.1811C25.8938 41.457 26.2728 41.5425 26.3826 41.2891L32.2064 27.8494C32.278 27.6843 32.157 27.5 31.9771 27.5H30.2047C30.0341 27.5 29.9136 27.3328 29.9675 27.1709L33.2482 17.3291C33.3021 17.1672 33.1816 17 33.011 17Z" fill="#FFE486" stroke="#FFE486"/>
<path d="M144.275 49.0547V12.9844H132.99V12.7207L135.125 8.18555H160.833V8.44922L158.698 12.9844H149.548V46.6816L144.539 49.0547H144.275Z" fill="white"/>
</svg>
